<?xml version="1.0" encoding="iso-8859-1"?>
<!-- Uploaded to: SVG Repo, www.svgrepo.com, Generator: SVG Repo Mixer Tools -->
<svg version="1.1" id="Layer_1" xmlns="http://www.w3.org/2000/svg" xmlns:xlink="http://www.w3.org/1999/xlink" 
	 viewBox="0 0 392.533 392.533" xml:space="preserve">
<path style="fill:#FFFFFF;" d="M294.4,21.786H98.133c-6.012,0-10.925,4.848-10.925,10.925v327.111
	c0,6.012,4.848,10.925,10.925,10.925H294.4c6.012,0,10.925-4.848,10.925-10.925V32.711C305.325,26.699,300.347,21.786,294.4,21.786z
	"/>
<rect x="108.994" y="43.572" style="fill:#56ACE0;" width="174.416" height="305.325"/>
<path style="fill:#FFC10D;" d="M243.653,173.446c0-11.572-9.438-21.01-21.01-21.01c-7.111,0-13.705,3.556-17.648,9.503
	c-4.267,6.4-13.059,6.723-18.23,0c-3.943-5.947-10.537-9.503-17.648-9.503c-11.572,0-21.01,9.438-21.01,21.01
	c0,14.352,25.988,43.119,47.709,62.384C217.665,216.307,243.653,187.41,243.653,173.446z"/>
<g>
	<path style="fill:#194F82;" d="M222.642,130.65c-9.891,0-19.265,3.426-26.764,9.374c-7.499-5.947-16.873-9.374-26.764-9.374
		c-23.661,0-42.796,19.265-42.796,42.796c0,31.741,52.17,76.606,62.578,85.204c4.202,3.297,9.503,3.232,13.964-0.065
		c10.408-8.792,62.513-54.174,62.513-85.139C265.438,149.915,246.238,130.65,222.642,130.65z M148.234,173.446
		c0-11.572,9.438-21.01,21.01-21.01c7.111,0,13.705,3.556,17.648,9.503c5.172,6.723,13.964,6.4,18.23,0
		c3.943-5.947,10.537-9.503,17.648-9.503c11.572,0,21.01,9.438,21.01,21.01c0,13.899-25.988,42.796-47.774,62.384
		C174.093,216.566,148.234,187.863,148.234,173.446z"/>
	<path style="fill:#194F82;" d="M294.4,0H98.133C80.097,0,65.422,14.675,65.422,32.711v327.111
		c0,18.036,14.675,32.711,32.711,32.711H294.4c18.036,0,32.711-14.675,32.711-32.711V32.711C327.111,14.675,312.436,0,294.4,0z
		 M305.325,359.822c0,6.012-4.848,10.925-10.925,10.925H98.133c-6.012,0-10.925-4.848-10.925-10.925V32.711
		c0-6.012,4.848-10.925,10.925-10.925H294.4c6.012,0,10.925,4.848,10.925,10.925L305.325,359.822L305.325,359.822z"/>
	<path style="fill:#194F82;" d="M161.164,67.232h70.077c6.012,0,10.925-4.848,10.925-10.925c0-6.012-4.848-10.925-10.925-10.925
		h-70.077c-6.012,0-10.925,4.848-10.925,10.925C150.303,62.384,155.152,67.232,161.164,67.232z"/>
	<path style="fill:#194F82;" d="M210.812,328.792h-29.156c-6.012,0-10.925,4.848-10.925,10.925c0,6.012,4.848,10.925,10.925,10.925
		h29.156c6.012,0,10.925-4.848,10.925-10.925S216.824,328.792,210.812,328.792z"/>
</g>
</svg>