<svg xmlns="http://www.w3.org/2000/svg" viewBox="0 0 32 32"><g id="mobile"><path d="M21.51,2H16a1,1,0,0,0,0,2h2.61l-.16.48a.75.75,0,0,1-.72.52H14.27a.75.75,0,0,1-.72-.52L13,2.68s0,0,0,0a1.08,1.08,0,0,0-.11-.18.49.49,0,0,0-.1-.15.81.81,0,0,0-.14-.12,1.4,1.4,0,0,0-.16-.1,1.09,1.09,0,0,0-.17-.05A.78.78,0,0,0,12,2H10.49A3.49,3.49,0,0,0,7,5.49V21a1,1,0,0,0,2,0V5.49A1.49,1.49,0,0,1,10.49,4h.79l.37,1.11A2.76,2.76,0,0,0,14.27,7h3.46a2.76,2.76,0,0,0,2.62-1.89L20.72,4h.79A1.49,1.49,0,0,1,23,5.49v21A1.49,1.49,0,0,1,21.51,28h-11A1.49,1.49,0,0,1,9,26.51V25a1,1,0,0,0-2,0v1.51A3.49,3.49,0,0,0,10.49,30h11A3.49,3.49,0,0,0,25,26.51v-21A3.49,3.49,0,0,0,21.51,2Z"/><path d="M19.55,18.49,20,15.63a1.36,1.36,0,0,0-.32-1.13,1.44,1.44,0,0,0-1.1-.5H13.85l0-.11A2.06,2.06,0,0,0,11.94,12H11a1,1,0,0,0,0,2h.79a1.15,1.15,0,0,1,.07.22l.15.94a.06.06,0,0,1,0,0s0,0,0,0l.78,3.4A1.79,1.79,0,0,0,14.57,20h3.18A1.81,1.81,0,0,0,19.55,18.49ZM17.6,18H14.71l-.46-2H17.9Z"/><path d="M13.29,21.29a1.15,1.15,0,0,0-.21.33,1,1,0,0,0,.21,1.09,1.15,1.15,0,0,0,.33.21,1,1,0,0,0,1.09-.21,1.15,1.15,0,0,0,.21-.33A.84.84,0,0,0,15,22a1,1,0,0,0-1.71-.71Z"/><path d="M17.29,21.29a1.15,1.15,0,0,0-.21.33,1,1,0,0,0,1.3,1.3,1.15,1.15,0,0,0,.33-.21A1,1,0,0,0,19,22a1,1,0,0,0-1.71-.71Z"/></g></svg>